<?xml version="1.0" encoding="utf-8"?>
<!-- Generator: Adobe Illustrator 16.0.0, SVG Export Plug-In . SVG Version: 6.00 Build 0)  -->
<svg version="1.2" baseProfile="tiny" id="Layer_1" xmlns="http://www.w3.org/2000/svg" xmlns:xlink="http://www.w3.org/1999/xlink"
	 x="0px" y="0px" width="133px" height="60px" viewBox="0 0 133 60" xml:space="preserve">
<path fill-rule="evenodd" fill="#FFFFFF" d="M23.532,31.855c-1.26,1.549-2.522,2.559-3.784,3.026s-2.449,0.703-3.565,0.703
	c-1.658,0-3.019-0.371-4.083-1.109c-1.062-0.737-1.882-1.71-2.458-2.917c-0.578-1.208-0.928-2.567-1.054-4.081
	s-0.081-3.045,0.135-4.595c0.324-1.837,0.892-3.585,1.702-5.242c0.81-1.658,1.81-3.116,3-4.378c1.189-1.261,2.532-2.271,4.026-3.026
	c1.496-0.757,3.073-1.135,4.73-1.135c0.972,0,1.927,0.126,2.862,0.378c0.938,0.252,1.767,0.793,2.487,1.622l0.63,0.143
	c1.858-1.979,2.782-3.177,5.716-3.192l0.034,1.739c-1.156,0.317-1.861,0.889-2.321,2.833l-0.03,0.152
	c-0.199,0.973-0.389,2.054-0.569,3.244c-0.179,1.188-0.368,2.548-0.566,4.081c-0.199,1.53-0.424,3.358-0.676,5.484
	c-0.468,3.675-0.929,6.9-1.378,9.675c-0.451,2.774-0.964,5.18-1.541,7.216c-0.576,2.035-1.243,3.729-2,5.08
	c-0.755,1.352-1.675,2.423-2.755,3.216c-0.829,0.577-1.694,0.974-2.594,1.189c-0.903,0.215-1.803,0.324-2.703,0.324
	c-0.613,0-1.289-0.072-2.026-0.217c-0.739-0.145-1.425-0.368-2.055-0.675c-0.248-0.12-0.479-0.254-0.693-0.398
	c-1.827-1.007-2.925-3.244-1.65-5.329c0.827-1.353,2.97-0.899,3.833-0.736l1.35,1.465c-0.216,0.72-0.325,1.387-0.325,1.999
	c0,0.577,0.099,1.018,0.296,1.325c0.199,0.305,0.451,0.494,0.757,0.566c0.307,0.073,0.648,0.055,1.026-0.053
	c0.378-0.109,0.765-0.307,1.161-0.596c1.48-1.116,2.594-3.099,3.352-5.945c0.757-2.846,1.37-6.791,1.838-11.836H23.532z
	 M50.605,17.951c-0.376,3.29-0.968,6.579-1.438,9.851c-0.755,1.334-1.631,2.423-2.622,3.271c-0.99,0.846-1.9,1.271-2.729,1.271
	c-1.188,0-2.107-0.335-2.755-1c-0.649-0.667-1.119-1.513-1.406-2.542c-0.288-1.026-0.423-2.143-0.404-3.351
	c0.017-1.207,0.098-2.333,0.243-3.378c0.18-1.368,0.496-2.693,0.945-3.972c0.451-1.279,1.009-2.415,1.674-3.405
	c0.667-0.991,1.433-1.792,2.297-2.404c0.867-0.612,1.803-0.919,2.812-0.919c0.685,0,1.271,0.181,1.756,0.539
	c0.487,0.361,0.884,0.865,1.19,1.513c0.306,0.649,0.487,1.397,0.54,2.245c0.017,0.259,0.022,0.526,0.017,0.798
	C50.714,16.965,50.66,17.458,50.605,17.951 M122.907,12.612c0.46-1.943,1.165-2.515,2.32-2.832l-0.035-1.741
	c-2.314,0.013-3.376,0.761-4.635,2.047c-0.292-0.162-0.609-0.31-0.953-0.444c-0.919-0.36-2.026-0.541-3.323-0.541
	c-1.116,0-2.19,0.181-3.216,0.541c-1.026,0.359-1.965,0.873-2.811,1.54c-0.848,0.667-1.55,1.46-2.109,2.378
	c-0.558,0.919-0.907,1.938-1.052,3.054c-0.214,1.62,0.098,2.973,0.945,4.054c0.846,1.081,2.11,2.047,3.81,2.865
	c1.075,0.515,2.132,0.958,3.136,1.404c0.941,0.419,1.665,0.947,2.188,1.541s0.687,1.485,0.513,2.675
	c-0.186,1.294-0.7,2.351-1.566,3.162c-0.863,0.811-1.873,1.216-3.026,1.216c-1.333,0-2.278-0.307-2.837-0.919
	c-0.56-0.611-0.763-1.458-0.622-2.54c0.113-0.865,0.397-1.675,0.864-2.432l-0.27-0.648c-0.686-0.181-1.333-0.197-1.945-0.055
	c-0.613,0.146-1.162,0.38-1.648,0.703c-0.487,0.323-0.891,0.739-1.217,1.242c-0.197,0.311-0.349,0.626-0.455,0.948
	c-0.891,1.786-3.375,3.184-4.954,3.241c1.589-1.398,2.563-3.205,2.874-5.431c0.24-1.726-0.145-3.125-1.08-4.189
	c-0.937-1.062-2.213-1.981-3.838-2.729c-0.646-0.295-1.361-0.567-2.137-0.836c-0.773-0.271-1.398-0.545-1.864-0.838
	c-0.795-0.5-1.322-1.081-1.594-1.729c-0.271-0.648-0.306-1.494-0.135-2.542c0.153-0.934,0.567-1.765,1.271-2.485
	c0.702-0.722,1.539-1.08,2.513-1.08c1.116,0,1.909,0.259,2.378,0.781c0.468,0.522,0.616,1.25,0.486,2.19
	c-0.122,0.898-0.433,1.874-0.972,2.919l0.107,0.539c1.622,0.396,2.891,0.28,3.811-0.352c0.919-0.629,1.487-1.464,1.647-2.513
	c0.092-0.609,0-1.251-0.216-1.919c-0.215-0.666-0.604-1.278-1.162-1.836c-0.558-0.558-1.296-1.019-2.216-1.378
	c-0.917-0.36-2.027-0.541-3.322-0.541c-1.117,0-2.19,0.181-3.217,0.541c-1.026,0.359-1.964,0.873-2.812,1.54
	c-0.846,0.667-1.549,1.46-2.107,2.378c-0.558,0.919-0.907,1.938-1.054,3.054c-0.213,1.62,0.1,2.973,0.945,4.054
	c0.847,1.081,2.11,2.047,3.812,2.865c1.073,0.515,2.132,0.958,3.134,1.404c0.943,0.419,1.667,0.947,2.189,1.541
	s0.686,1.485,0.514,2.675c-0.189,1.294-0.703,2.351-1.568,3.162s-1.872,1.216-3.026,1.216c-1.332,0-2.279-0.307-2.838-0.919
	c-0.557-0.611-0.762-1.458-0.62-2.54c0.111-0.865,0.396-1.675,0.864-2.432l-0.271-0.648c-0.685-0.181-1.332-0.197-1.945-0.055
	c-0.613,0.146-1.164,0.38-1.648,0.703c-0.487,0.323-0.893,0.739-1.217,1.242c-0.324,0.504-0.525,1.026-0.596,1.567
	c-0.073,0.577-0.017,1.172,0.164,1.784l0.011,0.036c-1.058,0.74-2.289,1.208-3.191,1.208l-0.094,0.049
	c-0.328-0.062-0.607-0.169-0.834-0.319c-0.269-0.181-0.469-0.46-0.595-0.838c-0.125-0.378-0.189-0.91-0.189-1.594
	c0-1.335,0.203-3.534,0.648-6.594c0.096-0.65,0.234-1.451,0.378-2.406c0.145-0.955,0.299-1.929,0.46-2.919
	c0.162-0.99,0.324-1.964,0.487-2.917c0.162-0.957,0.301-1.757,0.404-2.406c0.077-0.468,0.118-0.918,0.136-1.351
	c0.019-0.432-0.036-0.829-0.162-1.19c-0.126-0.359-0.37-0.684-0.729-0.972c-0.361-0.289-0.85-0.648-1.515-0.648L78.75,9.371
	l-0.866,0.812c-0.395,2.918-0.811,5.854-1.242,8.809c-0.433,2.955-0.846,5.893-1.244,8.81c-0.756,1.334-1.666,2.451-2.729,3.352
	c-1.062,0.899-2.008,1.351-2.837,1.351c-1.226,0-2.028-0.513-2.405-1.541c-0.378-1.026-0.532-2.278-0.459-3.755
	c0.036-0.722,0.135-1.703,0.297-2.945c0.162-1.245,0.351-2.568,0.567-3.974c0.217-1.406,0.433-2.774,0.648-4.107
	c0.217-1.334,0.388-2.453,0.542-3.351c0.06-0.363,0.126-0.756,0.161-1.19c0.036-0.43-0.035-0.837-0.216-1.216
	c-0.181-0.378-0.522-0.693-1.028-0.945c-0.504-0.252-1.279-0.378-2.324-0.378h-0.541c-0.178,0-0.449,0.026-0.81,0.081
	c-0.359,0.052-0.848,0.116-1.458,0.189c-0.613,0.071-1.441,0.198-2.487,0.378l-0.162,1.189c0.827,0.143,1.478,0.297,1.945,0.459
	s0.82,0.378,1.053,0.648c0.235,0.271,0.371,0.596,0.406,0.974c0.036,0.378,0.019,0.838-0.054,1.378
	c-0.286,2.125-0.584,4.306-0.891,6.539c-0.306,2.235-0.603,4.397-0.893,6.487c-0.088,0.646-0.13,1.282-0.123,1.907
	c-0.361,2.238-3.529,4.146-5.353,4.146c-0.433-0.073-0.803-0.208-1.107-0.406c-0.307-0.199-0.532-0.486-0.677-0.864
	c-0.145-0.38-0.216-0.929-0.216-1.648c0.036-0.793,0.107-1.793,0.216-3c0.109-1.208,0.288-2.693,0.542-4.458
	c0.288-2.092,0.53-3.866,0.729-5.325c0.197-1.459,0.378-2.703,0.539-3.729c0.164-1.026,0.316-1.865,0.461-2.513
	c0.143-0.648,0.288-1.207,0.432-1.675l-1.513-0.757l-3.19,2c-0.72-0.829-1.549-1.368-2.487-1.622
	c-0.936-0.252-1.891-0.378-2.864-0.378c-1.656,0-3.233,0.378-4.729,1.135c-1.494,0.755-2.836,1.765-4.026,3.026
	c-1.188,1.262-2.189,2.72-3,4.378c-0.81,1.657-1.377,3.405-1.703,5.242c-0.216,1.55-0.261,3.082-0.135,4.595
	c0.127,1.511,0.477,2.874,1.054,4.081c0.577,1.207,1.396,2.18,2.459,2.917c1.063,0.738,2.424,1.109,4.08,1.109
	c1.119,0,2.334-0.235,3.649-0.703c1.315-0.468,2.604-1.478,3.864-3.026h0.109c0,0.395,0.045,0.811,0.135,1.242
	c0.09,0.433,0.261,0.838,0.513,1.217c0.254,0.379,0.587,0.684,1,0.918c0.414,0.235,0.945,0.353,1.594,0.353h0.299h0.297
	c0.084,0,0.184-0.004,0.299-0.014c0.998,0.014,2.808,0.068,4.728-0.636c1.6-0.586,3.296-1.755,4.334-3.127
	c0.137,0.462,0.319,0.893,0.547,1.289c0.433,0.758,1.036,1.361,1.812,1.812c0.772,0.448,1.755,0.675,2.944,0.675
	c1.117,0,2.333-0.235,3.646-0.703c1.316-0.468,2.604-1.478,3.866-3.026h0.107c0,0.395,0.045,0.811,0.135,1.242
	c0.091,0.433,0.262,0.838,0.514,1.217c0.251,0.379,0.587,0.684,1,0.918c0.415,0.235,0.945,0.353,1.595,0.353h0.01h0.585
	c0.073,0,0.158-0.004,0.254-0.01c1.007,0.012,2.63,0.01,4.354-0.592l0.256-0.048l0.004-0.049c0.823-0.317,1.669-0.785,2.433-1.354
	c0.106,0.12,0.222,0.236,0.348,0.35c0.539,0.486,1.279,0.894,2.216,1.216c0.938,0.323,2.106,0.487,3.513,0.487
	c1.369,0,2.616-0.136,3.738-0.404h0.124c0.673-0.079,2.913,0.235,5.323-0.648c1.306-0.479,2.677-1.346,3.7-2.393
	c0.008,0.029,0.018,0.062,0.027,0.094c0.18,0.613,0.541,1.163,1.08,1.648c0.541,0.486,1.28,0.894,2.217,1.216
	c0.938,0.323,2.106,0.487,3.513,0.487c3.171,0,5.675-0.722,7.513-2.162c1.838-1.441,2.96-3.366,3.297-5.783
	c0.24-1.726-0.146-3.125-1.082-4.189c-0.936-1.062-2.211-1.981-3.838-2.729c-0.643-0.295-1.358-0.567-2.133-0.836
	c-0.774-0.271-1.4-0.545-1.866-0.838c-0.793-0.5-1.323-1.081-1.594-1.729c-0.269-0.648-0.307-1.494-0.136-2.542
	c0.154-0.934,0.568-1.765,1.271-2.485c0.703-0.722,1.54-1.08,2.513-1.08c1.119,0,1.91,0.259,2.38,0.781
	c0.156,0.177,0.276,0.376,0.364,0.598c-0.501,0.633-0.883,1.424-0.999,2.122c-0.219,1.284-0.284,2.896,1.456,3.114
	c0.988,0.122,1.993-0.112,2.609-0.537c0.919-0.629,1.49-1.464,1.649-2.513c0.093-0.609-0.001-1.251-0.218-1.919
	c-0.023-0.081-0.054-0.162-0.086-0.241L122.907,12.612z M25.586,18.398c0.18-0.974,0.243-1.883,0.19-2.729
	c-0.055-0.848-0.235-1.594-0.542-2.245c-0.306-0.648-0.703-1.152-1.19-1.513c-0.485-0.358-1.071-0.539-1.755-0.539
	c-1.009,0-1.945,0.307-2.81,0.919c-0.865,0.611-1.632,1.414-2.299,2.404c-0.666,0.99-1.224,2.126-1.675,3.405
	c-0.449,1.278-0.765,2.604-0.945,3.972c-0.145,1.045-0.226,2.171-0.243,3.378c-0.019,1.208,0.117,2.325,0.404,3.351
	c0.29,1.028,0.757,1.874,1.406,2.542c0.648,0.665,1.568,1,2.755,1c0.831,0,1.739-0.425,2.731-1.271
	c0.991-0.848,1.863-1.937,2.621-3.271L25.586,18.398z"/>
</svg>
